<?xml version="1.0" encoding="UTF-8"?>
<svg id="Capa_1" xmlns="http://www.w3.org/2000/svg" version="1.1" viewBox="0 0 192 192">
  <!-- Generator: Adobe Illustrator 30.3.0, SVG Export Plug-In . SVG Version: 2.1.3 Build 182)  -->
  <defs>
    <style>
      .st0 {
        fill: #ceb37c;
      }

      .st1 {
        fill: #0f2b41;
      }
    </style>
  </defs>
  <rect class="st1" width="192" height="192" rx="21.4" ry="21.4"/>
  <g>
    <path class="st0" d="M65.29,55.62c-4.24,0-7.68-3.43-7.68-7.68v-30.71c0-4.24,3.43-7.68,7.68-7.68s7.68,3.43,7.68,7.68v30.71c0,4.24-3.43,7.68-7.68,7.68Z"/>
    <path class="st0" d="M126.71,55.62c-4.24,0-7.68-3.43-7.68-7.68v-30.71c0-4.24,3.43-7.68,7.68-7.68s7.68,3.43,7.68,7.68v30.71c0,4.24-3.43,7.68-7.68,7.68Z"/>
    <path class="st0" d="M149.74,178.44H42.26c-12.7,0-23.03-10.33-23.03-23.03V47.94c0-12.7,10.33-23.03,23.03-23.03h107.47c12.7,0,23.03,10.33,23.03,23.03v107.47c0,12.7-10.33,23.03-23.03,23.03ZM42.26,40.26c-4.24,0-7.68,3.44-7.68,7.68v107.47c0,4.24,3.44,7.68,7.68,7.68h107.47c4.24,0,7.68-3.44,7.68-7.68V47.94c0-4.24-3.44-7.68-7.68-7.68H42.26Z"/>
    <path class="st0" d="M165.09,86.32H26.91c-4.24,0-7.68-3.43-7.68-7.68s3.43-7.68,7.68-7.68h138.18c4.24,0,7.68,3.43,7.68,7.68s-3.43,7.68-7.68,7.68Z"/>
  </g>
</svg>